<svg id="visual" viewBox="0 0 900 600" width="900" height="600" xmlns="http://www.w3.org/2000/svg" xmlns:xlink="http://www.w3.org/1999/xlink" version="1.1"><rect x="0" y="0" width="900" height="600" fill="#001220"></rect><path d="M0 350L21.5 363.2C43 376.3 86 402.7 128.8 409C171.7 415.3 214.3 401.7 257.2 396C300 390.3 343 392.7 385.8 393C428.7 393.3 471.3 391.7 514.2 391.5C557 391.3 600 392.7 642.8 389.3C685.7 386 728.3 378 771.2 377.8C814 377.7 857 385.3 878.5 389.2L900 393L900 601L878.5 601C857 601 814 601 771.2 601C728.3 601 685.7 601 642.8 601C600 601 557 601 514.2 601C471.3 601 428.7 601 385.8 601C343 601 300 601 257.2 601C214.3 601 171.7 601 128.8 601C86 601 43 601 21.5 601L0 601Z" fill="#fa7268"></path><path d="M0 452L21.5 456C43 460 86 468 128.8 465.5C171.7 463 214.3 450 257.2 449C300 448 343 459 385.8 464.7C428.7 470.3 471.3 470.7 514.2 462.2C557 453.7 600 436.3 642.8 434.3C685.7 432.3 728.3 445.7 771.2 451C814 456.3 857 453.7 878.5 452.3L900 451L900 601L878.5 601C857 601 814 601 771.2 601C728.3 601 685.7 601 642.8 601C600 601 557 601 514.2 601C471.3 601 428.7 601 385.8 601C343 601 300 601 257.2 601C214.3 601 171.7 601 128.8 601C86 601 43 601 21.5 601L0 601Z" fill="#ef5f67"></path><path d="M0 492L21.5 486.2C43 480.3 86 468.7 128.8 462C171.7 455.3 214.3 453.7 257.2 452.5C300 451.3 343 450.7 385.8 450.7C428.7 450.7 471.3 451.3 514.2 453.8C557 456.3 600 460.7 642.8 458.2C685.7 455.7 728.3 446.3 771.2 446.8C814 447.3 857 457.7 878.5 462.8L900 468L900 601L878.5 601C857 601 814 601 771.2 601C728.3 601 685.7 601 642.8 601C600 601 557 601 514.2 601C471.3 601 428.7 601 385.8 601C343 601 300 601 257.2 601C214.3 601 171.7 601 128.8 601C86 601 43 601 21.5 601L0 601Z" fill="#e34c67"></path><path d="M0 497L21.5 497.2C43 497.3 86 497.7 128.8 500.7C171.7 503.7 214.3 509.3 257.2 510.8C300 512.3 343 509.7 385.8 504.3C428.7 499 471.3 491 514.2 493.3C557 495.7 600 508.3 642.8 513.8C685.7 519.3 728.3 517.7 771.2 517C814 516.3 857 516.7 878.5 516.8L900 517L900 601L878.5 601C857 601 814 601 771.2 601C728.3 601 685.7 601 642.8 601C600 601 557 601 514.2 601C471.3 601 428.7 601 385.8 601C343 601 300 601 257.2 601C214.3 601 171.7 601 128.8 601C86 601 43 601 21.5 601L0 601Z" fill="#d53867"></path><path d="M0 537L21.5 538.5C43 540 86 543 128.8 546C171.7 549 214.3 552 257.2 555C300 558 343 561 385.8 561.7C428.7 562.3 471.3 560.7 514.2 559C557 557.3 600 555.7 642.8 553.7C685.7 551.7 728.3 549.3 771.2 549.2C814 549 857 551 878.5 552L900 553L900 601L878.5 601C857 601 814 601 771.2 601C728.3 601 685.7 601 642.8 601C600 601 557 601 514.2 601C471.3 601 428.7 601 385.8 601C343 601 300 601 257.2 601C214.3 601 171.7 601 128.8 601C86 601 43 601 21.5 601L0 601Z" fill="#c62368"></path></svg>